<svg width="261" height="262" viewBox="0 0 261 262" fill="none" xmlns="http://www.w3.org/2000/svg">
<g clip-path="url(#clip0)">
<g filter="url(#filter0_d)">
<path d="M13.6139 208.451L13.2198 208.335L13.6139 208.451C18.0846 193.231 31.5459 186.413 46.5354 182.298C52.6814 180.611 59.0484 179.387 65.1209 178.22C66.4475 177.965 67.7601 177.713 69.0532 177.459C76.244 176.048 82.8524 174.586 87.8423 172.335C97.9256 167.79 102.137 157.902 104.155 148.634C105.165 143.992 105.633 139.471 106.003 135.805L106.027 135.569C106.203 133.829 106.358 132.296 106.541 131.036C106.705 129.903 106.887 129.036 107.107 128.45H154.546C154.766 129.036 154.949 129.903 155.113 131.036C155.297 132.298 155.452 133.833 155.629 135.577L155.652 135.804C156.023 139.47 156.491 143.991 157.501 148.633C159.519 157.9 163.73 167.788 173.81 172.335C178.801 174.586 185.409 176.048 192.599 177.459C193.892 177.713 195.205 177.965 196.531 178.22C202.604 179.387 208.97 180.61 215.116 182.298C230.105 186.413 243.566 193.23 248.039 208.451C252.369 223.189 252.77 229.04 253.702 242.633C253.838 244.617 253.985 246.766 254.158 249.132C254.068 249.149 253.965 249.168 253.848 249.189C253.355 249.28 252.622 249.414 251.669 249.584C249.763 249.925 246.972 250.411 243.437 250.995C236.365 252.162 226.313 253.718 214.395 255.275C190.555 258.388 159.259 261.5 129.411 261.5C99.5633 261.5 68.9769 258.388 45.8473 255.275C34.2838 253.719 24.5868 252.162 17.7812 250.995C14.3785 250.411 11.6988 249.925 9.87018 249.585C8.95587 249.415 8.25436 249.281 7.78165 249.19C7.67611 249.17 7.58197 249.152 7.49942 249.136C7.67109 246.774 7.81774 244.628 7.95315 242.647C8.88258 229.047 9.28265 223.193 13.6139 208.451Z" fill="#636358" stroke="black"/>
<path d="M229.479 253.177C229.385 251.842 229.299 250.579 229.217 249.376C228.286 235.776 227.88 229.829 223.52 214.993C218.893 199.242 204.962 192.291 189.903 188.157C183.716 186.459 177.302 185.226 171.228 184.059C169.905 183.805 168.598 183.554 167.314 183.302C160.108 181.887 153.612 180.443 148.743 178.247C143.952 176.086 140.361 171.907 137.673 166.788C134.986 161.671 133.222 155.656 132.069 149.893C130.915 144.134 130.375 138.647 130.123 134.599C129.997 132.575 129.943 130.913 129.92 129.757C129.909 129.197 129.906 128.756 129.905 128.45H154.546C154.767 129.036 154.949 129.903 155.114 131.036C155.297 132.299 155.453 133.834 155.629 135.578C155.637 135.653 155.644 135.729 155.652 135.804C156.023 139.47 156.491 143.991 157.502 148.633C159.519 157.9 163.73 167.788 173.811 172.335C178.801 174.586 185.409 176.048 192.6 177.459C193.893 177.713 195.205 177.965 196.531 178.22C202.604 179.387 208.97 180.61 215.116 182.298C230.105 186.413 243.566 193.23 248.039 208.451C252.372 223.199 252.771 229.048 253.699 242.664C253.834 244.641 253.979 246.781 254.15 249.136C254.144 249.137 254.137 249.138 254.131 249.14C253.829 249.196 253.379 249.279 252.79 249.385C251.612 249.599 249.877 249.908 247.652 250.289C243.304 251.033 237.081 252.054 229.479 253.177Z" fill="#515147" stroke="black"/>
<path d="M97.2406 164.277H164.284C162.418 201.209 151.323 239.493 142.942 261.292C138.418 261.42 133.897 261.499 129.412 261.5C125.82 261.5 122.22 261.456 118.628 261.369C110.233 239.583 99.1062 201.254 97.2406 164.277Z" fill="#EAEAE1" stroke="black"/>
<path d="M141.02 169.918L160.478 177.888L144.741 193.017L141.02 169.918Z" fill="#C6C5AF" stroke="black"/>
<path d="M119.867 169.727L116.854 193.019L100.341 177.876L119.867 169.727Z" fill="#C6C5AF" stroke="black"/>
<path d="M119.59 173.508L120.844 169.432H140.681L141.969 173.639L119.59 173.508Z" fill="#C6C5AF" stroke="black"/>
<mask id="path-8-inside-1" fill="white">
<path d="M120.475 168.932L118.915 174.004L119.814 174.595L120.475 168.932Z"/>
</mask>
<path d="M120.475 168.932L118.915 174.004L119.814 174.595L120.475 168.932Z" fill="#AAA88F"/>
<path d="M120.475 168.932L121.468 169.048L119.519 168.638L120.475 168.932ZM118.915 174.004L117.959 173.71L117.738 174.428L118.366 174.84L118.915 174.004ZM119.814 174.595L119.265 175.43L120.62 176.32L120.808 174.71L119.814 174.595ZM119.519 168.638L117.959 173.71L119.871 174.298L121.43 169.226L119.519 168.638ZM118.366 174.84L119.265 175.43L120.363 173.759L119.464 173.168L118.366 174.84ZM120.808 174.71L121.468 169.048L119.481 168.817L118.821 174.479L120.808 174.71Z" fill="black" mask="url(#path-8-inside-1)"/>
<path d="M141.695 174.113L141.478 172.764L142.005 173.935L141.695 174.113Z" fill="#AAA88F" stroke="black"/>
<path d="M137.261 189.715L142.187 255.263L141.75 261.327C137.624 261.435 133.504 261.499 129.413 261.499C126.211 261.499 123.004 261.457 119.795 261.393L119.353 255.27L125.104 189.715H137.261Z" fill="#4C4C4C" stroke="black"/>
<path d="M137.259 189.722L137.441 192.244L128.351 189.924L137.259 189.722Z" fill="#3A3A38" stroke="black"/>
<path d="M117.593 181.423L115.959 171.617L145.561 171.599L143.929 181.435L137.224 189.006H124.907L117.593 181.423Z" fill="#4C4C4C" stroke="black"/>
<path d="M99.6331 158.113L119.877 169.176L117.437 177.117L117.428 177.146L117.423 177.175L115.357 188.635L90.5171 170.649C93.809 166.188 96.1317 162.992 97.6416 160.897C98.4192 159.818 98.9812 159.031 99.349 158.514C99.4618 158.355 99.5563 158.222 99.6331 158.113Z" fill="#EAEAE1" stroke="black"/>
<path d="M170.287 170.649L145.447 188.635L143.381 177.175L143.376 177.146L143.367 177.117L140.927 169.176L161.171 158.113C161.248 158.222 161.342 158.355 161.455 158.514C161.823 159.031 162.385 159.818 163.162 160.897C164.672 162.992 166.995 166.188 170.287 170.649Z" fill="#EAEAE1" stroke="black"/>
<path d="M140.927 169.176L142.224 173.414C144.104 175.468 146.26 177.128 148.742 178.247L140.927 169.176ZM140.927 169.176L161.171 158.113C161.248 158.222 161.342 158.355 161.455 158.514C161.823 159.031 162.384 159.818 163.161 160.897C164.67 162.993 166.99 166.19 170.277 170.654L156.23 180.824C153.456 180.073 150.933 179.233 148.742 178.247L140.927 169.176Z" fill="#E0DBD3" stroke="black"/>
<path d="M189.114 198.021L178.425 200.98L176.919 201.397L178.387 201.932L190.329 206.283L157.202 260.708C153.668 260.899 150.116 261.061 146.559 261.188L179.118 175.091L189.114 198.021Z" fill="#515147" stroke="black"/>
<path d="M81.6256 175.353L114.263 261.246C110.716 261.132 107.178 260.983 103.666 260.8L70.4796 206.279L82.4215 201.928L83.8893 201.393L82.3837 200.976L71.6957 198.017L81.6256 175.353Z" fill="#515147" stroke="black"/>
<path d="M139.73 261.379L165.575 163.835L178.654 174.057L185.816 197.353L175.279 201.116L174.071 201.548L175.253 202.047L186.839 206.945L155.84 260.772C150.489 261.053 145.102 261.259 139.73 261.379Z" fill="#72726A" stroke="black"/>
<path d="M171.188 184.046C167.558 183.348 164.051 182.674 160.774 181.935L165.571 163.835L178.65 174.057L182.42 186.317C178.697 185.491 174.973 184.774 171.367 184.08L171.188 184.046Z" fill="#636358" stroke="black"/>
<path d="M95.2307 163.853L121.087 261.429C115.716 261.33 110.343 261.141 105.022 260.878L73.9647 206.951L85.5508 202.053L86.7329 201.553L85.5242 201.121L74.9879 197.358L82.0869 174.332L95.2307 163.853Z" fill="#72726A" stroke="black"/>
<path d="M184.179 114.366C181.866 113.948 179.972 111.809 178.865 108.451C177.764 105.114 177.489 100.694 178.331 95.9918C179.172 91.2891 180.962 87.2427 183.15 84.5002C185.353 81.7402 187.869 80.3984 190.182 80.8165C192.495 81.2347 194.388 83.3735 195.496 86.7318C196.597 90.0688 196.871 94.4884 196.03 99.1911C195.188 103.894 193.399 107.94 191.21 110.683C189.008 113.443 186.492 114.784 184.179 114.366Z" fill="#CCA483" stroke="black"/>
<path d="M65.4837 99.1999C64.6422 94.4972 64.9171 90.0776 66.0177 86.7406C67.1254 83.3823 69.0186 81.2435 71.3318 80.8254C73.645 80.4072 76.161 81.749 78.3634 84.509C80.5518 87.2515 82.3416 91.2979 83.183 96.0006C84.0245 100.703 83.7496 105.123 82.649 108.46C81.5413 111.818 79.6481 113.957 77.3349 114.375C75.0217 114.793 72.5057 113.451 70.3032 110.691C68.1148 107.949 66.3251 103.903 65.4837 99.1999Z" fill="#DBB491" stroke="black"/>
<path d="M78.7835 39.6895H130.778H182.8C182.852 39.9145 182.926 40.2369 183.017 40.6509C183.212 41.5308 183.486 42.8244 183.807 44.4757C184.449 47.7785 185.276 52.5117 186.012 58.2285C187.486 69.665 188.598 85.0242 187.163 100.738C185.727 116.456 181.745 132.488 173.062 145.304C164.402 158.087 151.047 167.701 130.778 170.603C110.517 167.701 97.1673 158.087 88.5115 145.304C79.8331 132.488 75.8536 116.456 74.4191 100.738C72.9851 85.0242 74.098 69.665 75.5716 58.2285C76.3082 52.5117 77.1344 47.7785 77.7762 44.4757C78.0971 42.8244 78.3719 41.5308 78.5662 40.6509C78.6576 40.2369 78.7312 39.9145 78.7835 39.6895Z" fill="#DBB491" stroke="black"/>
<path d="M173.063 145.304C165.084 157.082 153.118 166.169 135.432 169.796C136.672 169.166 138.132 168.328 139.769 167.22C145.138 163.589 152.402 157.067 160.074 145.489C177.307 119.485 175.531 95.3478 172.569 55.1123C172.209 50.2201 171.831 45.0899 171.468 39.6895H182.8C182.853 39.9145 182.926 40.2369 183.018 40.6509C183.212 41.5308 183.487 42.8244 183.808 44.4757C184.45 47.7785 185.276 52.5117 186.013 58.2285C187.486 69.665 188.599 85.0242 187.163 100.738C185.727 116.456 181.745 132.488 173.063 145.304Z" fill="#CCA483" stroke="black"/>
<path d="M188.614 92.4468C189.004 91.7537 189.485 90.8262 189.989 89.6856C191.201 86.9429 192.54 82.973 193.048 78.0733C194.209 66.8597 193.731 53.5258 190.889 43.1463C189.467 37.9546 187.465 33.5432 184.816 30.5026C182.18 27.4777 178.914 25.816 174.905 26.0641L173.591 26.1454L174.261 25.4723C174.217 25.3911 174.165 25.2951 174.104 25.1851C173.887 24.7912 173.559 24.2191 173.123 23.511C172.251 22.0945 170.943 20.136 169.208 17.9737C165.735 13.6449 160.566 8.52224 153.759 5.28054C153.758 5.28044 153.758 5.28034 153.758 5.28024L153.758 5.28003L153.75 5.27653L153.718 5.26151C153.688 5.24802 153.643 5.22766 153.583 5.20105C153.463 5.14783 153.283 5.0696 153.044 4.97121C152.568 4.77444 151.86 4.49712 150.941 4.17813C149.103 3.54009 146.423 2.73574 143.067 2.0757C136.354 0.755535 126.94 0.0140177 116.143 2.32992C108.044 4.06784 97.409 7.70487 88.0666 13.8625C78.7268 20.0184 70.7153 28.6678 67.7723 40.4265L67.772 40.4281L67.7674 40.4484L67.7491 40.5305C67.7329 40.6035 67.7091 40.7126 67.6785 40.856C67.6175 41.1428 67.5296 41.5666 67.423 42.1126C67.2099 43.2046 66.9219 44.785 66.6235 46.7345C66.0265 50.6344 65.3886 56.0064 65.2236 61.8977C65.0586 67.7912 65.3672 74.1898 66.656 80.1482C67.8344 85.5966 69.8264 90.6491 72.9997 94.6128C72.9884 94.2859 72.9763 93.9085 72.9642 93.4858C72.9179 91.8661 72.8721 89.5806 72.8741 86.9158C72.8782 81.5897 73.0734 74.7336 73.8412 68.647L73.9254 67.9791L188.614 92.4468ZM188.614 92.4468C188.558 79.6562 187.89 69.7459 187.221 62.9537C186.872 59.4033 186.522 56.7049 186.26 54.8923C186.129 53.986 186.019 53.3012 185.942 52.842C185.904 52.6125 185.874 52.4394 185.853 52.3232C185.842 52.2651 185.834 52.2212 185.829 52.1917L185.823 52.1581L185.821 52.1494L185.821 52.147L185.821 52.1464C185.821 52.1462 185.821 52.146 185.329 52.2392L185.821 52.146L185.543 50.6821L184.881 52.0171C180.801 60.2476 171.825 65.4971 163.767 68.6936C159.751 70.2868 155.991 71.3589 153.235 72.0326C152.123 72.3046 151.175 72.5114 150.44 72.6613C153.768 69.2225 155.671 64.1737 156.757 59.8621C157.371 57.4264 157.73 55.1987 157.937 53.5801C158.04 52.7703 158.105 52.112 158.144 51.6551C158.164 51.4266 158.177 51.2484 158.186 51.1267C158.19 51.0658 158.193 51.0191 158.195 50.9873L158.197 50.9508L158.197 50.9412L158.197 50.9385L158.197 50.9377C158.197 50.9375 158.197 50.9373 157.698 50.911L158.197 50.9373L158.294 49.0983L157.281 50.6358C153.691 56.0799 145.998 61.358 136.067 65.3167C126.155 69.2682 114.086 71.8758 101.829 72.0317L101.835 72.5316L101.829 72.0317C92.6782 72.1489 85.8411 71.1973 81.2998 70.2201C79.029 69.7314 77.3318 69.2363 76.206 68.865C75.6432 68.6794 75.2231 68.5247 74.9456 68.4172C74.8068 68.3634 74.7037 68.3215 74.6362 68.2934C74.6025 68.2794 74.5776 68.2688 74.5617 68.2619L74.5444 68.2544L74.5408 68.2529L74.5405 68.2527L74.5402 68.2526L188.614 92.4468Z" fill="#393C3D" stroke="black"/>
<path d="M148.506 73.0842L147.072 74.2527L148.899 73.9657L148.821 73.4717C148.899 73.9657 148.899 73.9656 148.9 73.9656L148.901 73.9654L148.905 73.9647L148.922 73.9621L148.984 73.9518C149.039 73.9426 149.12 73.9289 149.226 73.9104C149.438 73.8734 149.748 73.817 150.145 73.7394C150.938 73.5842 152.079 73.344 153.474 73.0032C156.262 72.3218 160.068 71.237 164.138 69.6229C170.58 67.0679 177.757 63.1589 182.568 57.3654C177.931 65.3233 169.308 69.8139 161.176 72.3434C156.301 73.86 151.639 74.6596 148.193 75.0798C146.532 75.2824 145.155 75.3966 144.176 75.4605C145.874 73.9566 147.144 71.8381 148.024 69.9949C148.581 68.829 148.993 67.75 149.265 66.9624C149.402 66.5683 149.504 66.2463 149.572 66.0218C149.606 65.9096 149.632 65.8217 149.649 65.7613C149.657 65.7311 149.664 65.7077 149.668 65.6917L149.674 65.673L149.675 65.6679L149.675 65.6664L149.675 65.6659C149.676 65.6658 149.676 65.6656 149.193 65.5356L149.676 65.6656L149.958 64.6191L148.978 65.0839C125.455 76.2486 103.376 75.1618 89.4676 72.5022C92.9846 72.8677 97.1086 73.0909 101.842 73.0307L101.842 73.0307C114.227 72.8708 126.417 70.2368 136.44 66.2414C145.57 62.6014 152.962 57.8068 157.038 52.6687C157.011 52.9096 156.98 53.1714 156.944 53.4519C156.741 55.0415 156.387 57.2279 155.786 59.615C154.576 64.4151 152.389 69.9194 148.506 73.0842Z" fill="#CCA483" stroke="black"/>
</g>
</g>
<defs>
<filter id="filter0_d" x="2.96851" y="0.333252" width="255.721" height="269.667" filterUnits="userSpaceOnUse" color-interpolation-filters="sRGB">
<feFlood flood-opacity="0" result="BackgroundImageFix"/>
<feColorMatrix in="SourceAlpha" type="matrix" values="0 0 0 0 0 0 0 0 0 0 0 0 0 0 0 0 0 0 127 0"/>
<feOffset dy="4"/>
<feGaussianBlur stdDeviation="2"/>
<feColorMatrix type="matrix" values="0 0 0 0 0 0 0 0 0 0 0 0 0 0 0 0 0 0 0.25 0"/>
<feBlend mode="normal" in2="BackgroundImageFix" result="effect1_dropShadow"/>
<feBlend mode="normal" in="SourceGraphic" in2="effect1_dropShadow" result="shape"/>
</filter>
<clipPath id="clip0">
<path d="M0.658203 90.3333C0.658203 40.6277 40.9526 0.333252 90.6582 0.333252H171C220.706 0.333252 261 40.6276 261 90.3332V172C261 221.705 220.706 262 171 262H90.6582C40.9526 262 0.658203 221.706 0.658203 172V90.3333Z" fill="white"/>
</clipPath>
</defs>
</svg>
