<svg width="262" height="262" viewBox="0 0 262 262" fill="none" xmlns="http://www.w3.org/2000/svg">
<g clip-path="url(#clip0)">
<g filter="url(#filter0_d)">
<path d="M167.339 135.755C167.336 135.976 167.332 136.221 167.327 136.49C167.281 139.042 167.198 143.647 167.926 148.404C168.761 153.862 170.683 159.688 175.109 162.845L130.999 212.187L86.7793 162.844C91.2053 159.689 93.1558 153.865 94.0175 148.407C94.7788 143.584 94.7075 138.92 94.6687 136.389C94.6652 136.159 94.662 135.947 94.6596 135.755H167.339Z" fill="#FFD7A3" stroke="black"/>
<path d="M94.8759 135.755H167.339C167.336 135.976 167.332 136.222 167.327 136.491C167.281 139.042 167.198 143.647 167.925 148.404C168.759 153.859 170.68 159.681 175.1 162.838L159.469 179.695C147.009 177.774 132.151 170.415 119.71 161.621C113.452 157.197 107.822 152.422 103.432 147.814C99.2942 143.471 96.2889 139.309 94.8759 135.755Z" fill="#FDC88E" stroke="black"/>
<path d="M187.812 82.1038C187.812 98.3901 183.115 116.689 173.653 130.902C164.199 145.103 150.013 155.198 131 155.198C111.988 155.198 97.8013 145.103 88.3473 130.902C78.8857 116.689 74.1882 98.3901 74.1882 82.1038C74.1882 65.8849 80.5325 54.8009 90.7585 47.7503C101.013 40.6799 115.226 37.6296 131 37.6296C146.775 37.6296 160.987 40.6799 171.242 47.7503C181.468 54.8009 187.812 65.8849 187.812 82.1038Z" fill="#FFE1B2" stroke="black"/>
<path d="M206.093 168.102L206.245 167.628L206.093 168.102C214.552 170.805 222.268 176.902 227.871 184.569C233.475 192.236 236.937 201.434 236.937 210.303V249.734C236.937 256.232 231.664 261.5 225.156 261.5H36.8438C30.3363 261.5 25.0625 256.232 25.0625 249.734V210.302C25.0625 201.433 28.5254 192.235 34.1288 184.568C39.7321 176.902 47.4479 170.804 55.9065 168.102L81.2702 159.997C88.1214 165.225 96.432 171.388 105.043 176.261C113.731 181.177 122.787 184.819 131 184.819C139.214 184.819 148.27 181.177 156.957 176.261C165.569 171.388 173.879 165.225 180.73 159.997L206.093 168.102Z" fill="#FF6953" stroke="black"/>
<path d="M92.6149 150.487L92.6149 150.487L130.273 184.336L113.566 201.022C112.004 202.582 109.417 202.379 108.117 200.595C108.117 200.595 108.117 200.595 108.117 200.595L78.4373 159.837L87.6692 150.616C89.0209 149.266 91.1943 149.21 92.6149 150.487Z" fill="#E54F4F" stroke="black"/>
<path d="M148.434 201.022L131.726 184.336L169.385 150.487L169.05 150.115L169.385 150.487C170.805 149.21 172.979 149.266 174.33 150.616L183.562 159.837L153.882 200.595C153.882 200.595 153.882 200.595 153.882 200.595C152.583 202.379 149.995 202.582 148.434 201.022Z" fill="#E54F4F" stroke="black"/>
<path d="M134.593 225.203C134.593 227.184 132.985 228.791 131 228.791C129.015 228.791 127.406 227.184 127.406 225.203C127.406 223.222 129.015 221.615 131 221.615C132.985 221.615 134.593 223.222 134.593 225.203Z" fill="#E54F4F" stroke="black"/>
<path d="M134.593 204.76C134.593 206.741 132.985 208.348 131 208.348C129.015 208.348 127.406 206.741 127.406 204.76C127.406 202.779 129.015 201.172 131 201.172C132.985 201.172 134.593 202.779 134.593 204.76Z" fill="#E54F4F" stroke="black"/>
<path d="M66 94.37C66 91.251 66.9725 88.9903 68.5914 87.6824C70.1888 86.3917 72.5176 85.9469 75.4361 86.6534C75.4589 86.671 75.4866 86.6926 75.5188 86.7179C75.626 86.8024 75.7837 86.929 75.9823 87.0955C76.3794 87.4284 76.9394 87.92 77.5854 88.5508C78.8791 89.814 80.5093 91.627 81.87 93.8337C84.5873 98.2404 86.2024 104.152 82.0116 110.447C79.8854 113.641 77.9009 114.589 76.1868 114.369C74.4157 114.14 72.6787 112.645 71.1248 110.348C69.5867 108.075 68.3024 105.124 67.4028 102.204C66.5025 99.2823 66 96.433 66 94.37Z" fill="#FFE1B2" stroke="black"/>
<path d="M185.519 86.7306C185.559 86.7017 185.592 86.6778 185.619 86.6588C188.832 85.9432 191.407 86.3896 193.171 87.6953C194.946 89.0088 196 91.2663 196 94.37C196 96.4269 195.453 99.2718 194.471 102.192C193.49 105.109 192.089 108.058 190.41 110.331C188.72 112.621 186.814 114.136 184.846 114.368C182.925 114.595 180.741 113.615 178.427 110.43C176.128 107.266 175.442 104.222 175.68 101.436C175.92 98.6364 177.096 96.0582 178.582 93.8504C180.067 91.6439 181.847 89.8302 183.26 88.5657C183.966 87.9344 184.578 87.4423 185.012 87.1088C185.229 86.9422 185.401 86.8153 185.519 86.7306Z" fill="#FFE1B2" stroke="black"/>
<path d="M81.4641 92.8392L74.1619 89.193L71.9556 63.2376L85.3447 69.3372C84.9453 70.5531 84.5263 72.474 84.1178 74.6828C83.6524 77.1994 83.1929 80.1345 82.7874 82.9269C82.3819 85.7201 82.0297 88.3741 81.779 90.3296C81.6536 91.3075 81.5536 92.1109 81.4848 92.6699C81.4776 92.7291 81.4706 92.7856 81.4641 92.8392Z" fill="#7E5449" stroke="black"/>
<path d="M187.838 89.193L180.536 92.8392C180.529 92.7856 180.522 92.7291 180.515 92.6699C180.446 92.1109 180.346 91.3075 180.221 90.3296C179.97 88.3741 179.618 85.7201 179.213 82.9269C178.807 80.1345 178.348 77.1994 177.882 74.6828C177.474 72.474 177.055 70.5531 176.655 69.3372L190.044 63.2376L187.838 89.193Z" fill="#7E5449" stroke="black"/>
<path d="M190.115 37.0495V73.4265H71.8845V37.0495C71.8845 26.6047 78.5356 17.282 88.5073 13.7658L119.708 2.76456L119.542 2.29379L119.708 2.76455C127.01 0.189811 134.989 0.189811 142.291 2.76455L142.457 2.29418L142.291 2.76456L173.493 13.7658C183.464 17.282 190.115 26.6047 190.115 37.0495Z" fill="#FFB422" stroke="black"/>
<path d="M192.561 73.427H69.438C69.6952 71.0507 71.7751 68.6672 75.3817 66.3925C79.2047 63.9813 84.5855 61.7944 90.7719 59.9507C103.14 56.2647 118.615 53.9841 131 53.9841C143.385 53.9841 158.859 56.2649 171.228 59.951C177.414 61.7946 182.795 63.9816 186.617 66.3927C190.224 68.6674 192.304 71.0509 192.561 73.427Z" fill="#E54F4F" stroke="black"/>
<path d="M167.544 261.5H140.537L194.911 164.528L206.093 168.102C209.861 169.306 213.471 171.208 216.828 173.605L167.544 261.5Z" fill="#393950" stroke="black"/>
<path d="M155.062 28.9529C155.062 33.2494 152.446 37.2006 148.091 40.1007C143.739 42.9983 137.697 44.8068 131 44.8068C124.302 44.8068 118.26 42.9983 113.908 40.1007C109.553 37.2006 106.937 33.2494 106.937 28.9529C106.937 24.6563 109.553 20.7051 113.908 17.805C118.26 14.9074 124.302 13.0989 131 13.0989C137.697 13.0989 143.739 14.9074 148.091 17.805C152.446 20.7051 155.062 24.6563 155.062 28.9529Z" fill="#FF6953" stroke="black"/>
</g>
</g>
<defs>
<filter id="filter0_d" x="20.5625" y="0.333496" width="220.875" height="269.667" filterUnits="userSpaceOnUse" color-interpolation-filters="sRGB">
<feFlood flood-opacity="0" result="BackgroundImageFix"/>
<feColorMatrix in="SourceAlpha" type="matrix" values="0 0 0 0 0 0 0 0 0 0 0 0 0 0 0 0 0 0 127 0"/>
<feOffset dy="4"/>
<feGaussianBlur stdDeviation="2"/>
<feColorMatrix type="matrix" values="0 0 0 0 0 0 0 0 0 0 0 0 0 0 0 0 0 0 0.25 0"/>
<feBlend mode="normal" in2="BackgroundImageFix" result="effect1_dropShadow"/>
<feBlend mode="normal" in="SourceGraphic" in2="effect1_dropShadow" result="shape"/>
</filter>
<clipPath id="clip0">
<rect y="0.333252" width="262" height="261.667" rx="90" fill="white"/>
</clipPath>
</defs>
</svg>
